<?xml version="1.0" encoding="utf-8"?>
<!-- Generator: Adobe Illustrator 19.0.0, SVG Export Plug-In . SVG Version: 6.00 Build 0)  -->
<svg version="1.1" id="图层_1" xmlns="http://www.w3.org/2000/svg" xmlns:xlink="http://www.w3.org/1999/xlink" x="0px" y="0px"
	 viewBox="3 -3 54 54" style="enable-background:new 3 -3 54 54;" xml:space="preserve">
<style type="text/css">
	.st0{opacity:0.15;}
	.st1{fill:#040000;}
	.st2{opacity:0.45;}
	.st3{opacity:0.3;}
	.st4{opacity:0.4;}
	.st5{opacity:0.55;}
	.st6{opacity:0.25;}
	.st7{opacity:0.35;}
	.st8{opacity:0.5;}
	.st9{opacity:0.2;}
</style>
<g id="XMLID_73_" class="st0">
	<path id="XMLID_31_" class="st1" d="M32,9.5c0,1.1-0.9,2-2,2l0,0c-1.1,0-2-0.9-2-2v-10c0-1.1,0.9-2,2-2l0,0c1.1,0,2,0.9,2,2V9.5z"
		/>
</g>
<g id="XMLID_70_" class="st2">
	<path id="XMLID_32_" class="st1" d="M32,48.5c0,1.1-0.9,2-2,2l0,0c-1.1,0-2-0.9-2-2v-10c0-1.1,0.9-2,2-2l0,0c1.1,0,2,0.9,2,2V48.5z
		"/>
</g>
<g id="XMLID_67_" class="st0">
	<path id="XMLID_27_" class="st1" d="M15.5,22c1.1,0,2,0.9,2,2l0,0c0,1.1-0.9,2-2,2h-10c-1.1,0-2-0.9-2-2s0.9-2,2-2H15.5z"/>
</g>
<g id="XMLID_64_" class="st3">
	<path id="XMLID_28_" class="st1" d="M54.5,22c1.1,0,2,0.9,2,2l0,0c0,1.1-0.9,2-2,2h-10c-1.1,0-2-0.9-2-2s0.9-2,2-2H54.5z"/>
</g>
<g id="XMLID_61_" class="st0">
	<path id="XMLID_23_" class="st1" d="M24.5,10.4c0.6,1,0.2,2.2-0.7,2.7c-1,0.5-2.2,0.2-2.7-0.7l-5-8.7c-0.6-1-0.2-2.2,0.7-2.7
		c0.9-0.5,2.2-0.2,2.7,0.7L24.5,10.4z"/>
</g>
<g id="XMLID_58_" class="st4">
	<path id="XMLID_24_" class="st1" d="M44,44.2c0.5,1,0.2,2.2-0.7,2.7l0,0c-1,0.5-2.2,0.2-2.7-0.7l-5-8.7c-0.5-1-0.2-2.2,0.7-2.7l0,0
		c1-0.5,2.2-0.2,2.7,0.7L44,44.2z"/>
</g>
<g id="XMLID_55_" class="st5">
	<path id="XMLID_19_" class="st1" d="M16.4,29.5c1-0.5,2.2-0.2,2.7,0.7l0,0c0.5,1,0.2,2.2-0.7,2.7l-8.7,5c-1,0.5-2.2,0.2-2.7-0.7
		l0,0c-0.5-1-0.2-2.2,0.7-2.7L16.4,29.5z"/>
</g>
<g id="XMLID_52_" class="st6">
	<path id="XMLID_20_" class="st1" d="M50.2,10c1-0.6,2.2-0.2,2.7,0.7l0,0c0.5,1,0.2,2.2-0.7,2.7l-8.7,5c-1,0.6-2.2,0.2-2.7-0.7
		s-0.2-2.2,0.7-2.7L50.2,10z"/>
</g>
<g id="XMLID_49_" class="st0">
	<path id="XMLID_15_" class="st1" d="M18.4,15c1,0.5,1.3,1.8,0.7,2.7l0,0c-0.6,1-1.8,1.3-2.7,0.7l-8.7-5c-1-0.5-1.3-1.8-0.7-2.7
		S8.8,9.4,9.7,10L18.4,15z"/>
</g>
<g id="XMLID_46_" class="st7">
	<path id="XMLID_16_" class="st1" d="M52.2,34.5c1,0.5,1.3,1.8,0.7,2.7s-1.8,1.3-2.7,0.7l-8.7-5c-1-0.5-1.3-1.8-0.7-2.7
		s1.8-1.3,2.7-0.7L52.2,34.5z"/>
</g>
<g id="XMLID_43_" class="st8">
	<path id="XMLID_11_" class="st1" d="M21,35.6c0.5-1,1.8-1.3,2.7-0.7s1.3,1.8,0.7,2.7l-5,8.7c-0.5,1-1.8,1.3-2.7,0.7
		c-0.9-0.6-1.3-1.8-0.7-2.7L21,35.6z"/>
</g>
<g id="XMLID_40_" class="st9">
	<path id="XMLID_12_" class="st1" d="M40.5,1.8c0.5-1,1.8-1.3,2.7-0.7l0,0c1,0.6,1.3,1.8,0.7,2.7l-5,8.7c-0.5,1-1.8,1.3-2.7,0.7l0,0
		c-1-0.6-1.3-1.8-0.7-2.7L40.5,1.8z"/>
</g>
</svg>
